<svg width="55" height="55" viewBox="0 0 55 55" fill="none" xmlns="http://www.w3.org/2000/svg">
<rect x="1" y="1" width="53" height="53" rx="26.5" fill="white"/>
<rect x="1" y="1" width="53" height="53" rx="26.5" stroke="url(#paint0_linear_2288_1255)" stroke-width="2"/>
<path d="M19.25 40.5V35.5C19.25 35.0208 19.375 34.5885 19.625 34.2031C19.875 33.8177 20.2083 33.5104 20.625 33.2812L26.75 30.1875V28L22.4062 30.1562C22.1562 30.2812 21.8958 30.375 21.625 30.4375C21.3542 30.5 21.0833 30.5312 20.8125 30.5312C20.1667 30.5312 19.5573 30.3646 18.9844 30.0312C18.4115 29.6979 17.9688 29.2188 17.6562 28.5938C17.3646 28.0312 17.2396 27.4323 17.2812 26.7969C17.3229 26.1615 17.5208 25.5729 17.875 25.0312L21.75 19.25L19.25 15.5H26.75C29.5208 15.5 31.8802 16.4688 33.8281 18.4062C35.776 20.3438 36.75 22.7083 36.75 25.5V40.5H19.25ZM21.75 38H34.25V25.5C34.25 23.4167 33.5208 21.6458 32.0625 20.1875C30.6042 18.7292 28.8333 18 26.75 18H23.9375L24.75 19.25L19.9688 26.4375C19.8646 26.6042 19.8073 26.776 19.7969 26.9531C19.7865 27.1302 19.8229 27.3021 19.9062 27.4688C20.0104 27.6979 20.151 27.849 20.3281 27.9219C20.5052 27.9948 20.6771 28.0312 20.8438 28.0312C20.9062 28.0312 21.0625 28 21.3125 27.9375L29.25 23.9375V31.75L21.75 35.5V38Z" fill="url(#paint1_linear_2288_1255)"/>
<defs>
<linearGradient id="paint0_linear_2288_1255" x1="27.5" y1="0" x2="27.5" y2="55" gradientUnits="userSpaceOnUse">
<stop stop-color="#1D60E5" stop-opacity="0"/>
<stop offset="1" stop-color="#69B4FF" stop-opacity="0.67"/>
</linearGradient>
<linearGradient id="paint1_linear_2288_1255" x1="27.0117" y1="15.5" x2="27.0117" y2="40.5" gradientUnits="userSpaceOnUse">
<stop stop-color="#3E7EFF"/>
<stop offset="1" stop-color="#114FCA"/>
</linearGradient>
</defs>
</svg>
