<svg width="55" height="55" viewBox="0 0 55 55" fill="none" xmlns="http://www.w3.org/2000/svg">
<rect x="1" y="1" width="53" height="53" rx="26.5" fill="white"/>
<rect x="1" y="1" width="53" height="53" rx="26.5" stroke="url(#paint0_linear_2289_1296)" stroke-width="2"/>
<path d="M32.125 25.8125L36.5312 21.375L35.6562 20.5L32.125 24.0312L30.3438 22.25L29.4688 23.1562L32.125 25.8125ZM16.75 38V35.5H31.75V38H16.75ZM28.5781 27.4219C27.3594 26.2031 26.75 24.7292 26.75 23C26.75 21.2708 27.3594 19.7969 28.5781 18.5781C29.7969 17.3594 31.2708 16.75 33 16.75C34.7292 16.75 36.2031 17.3594 37.4219 18.5781C38.6406 19.7969 39.25 21.2708 39.25 23C39.25 24.7292 38.6406 26.2031 37.4219 27.4219C36.2031 28.6406 34.7292 29.25 33 29.25C31.2708 29.25 29.7969 28.6406 28.5781 27.4219ZM16.75 28V25.5H24.625C24.7708 25.9583 24.9375 26.3958 25.125 26.8125C25.3125 27.2292 25.5417 27.625 25.8125 28H16.75ZM16.75 33V30.5H28.5C28.9792 30.7917 29.4896 31.0365 30.0312 31.2344C30.5729 31.4323 31.1458 31.5729 31.75 31.6562V33H16.75Z" fill="url(#paint1_linear_2289_1296)"/>
<defs>
<linearGradient id="paint0_linear_2289_1296" x1="27.5" y1="0" x2="27.5" y2="55" gradientUnits="userSpaceOnUse">
<stop stop-color="#1D60E5" stop-opacity="0"/>
<stop offset="1" stop-color="#69B4FF" stop-opacity="0.67"/>
</linearGradient>
<linearGradient id="paint1_linear_2289_1296" x1="28" y1="16.75" x2="28" y2="38" gradientUnits="userSpaceOnUse">
<stop stop-color="#3E7EFF"/>
<stop offset="1" stop-color="#114FCA"/>
</linearGradient>
</defs>
</svg>
